<svg xmlns:dc="http://purl.org/dc/elements/1.1/" xmlns:cc="http://creativecommons.org/ns#" xmlns:rdf="http://www.w3.org/1999/02/22-rdf-syntax-ns#" xmlns:svg="http://www.w3.org/2000/svg" xmlns="http://www.w3.org/2000/svg" version="1.1" viewBox="0 0 100.00001 100" xml:space="preserve" x="0px" y="0px"><path d="M 46,5 C 24.225483,6.873407 6.8745791,24.225988 5,46 l 9,0.78125 C 15.499205,29.361539 29.361288,15.467541 46.78125,13.96875 L 46,5 z m 7.84375,0 -0.78125,9 c 18.450956,1.589482 32.90625,17.043437 32.90625,35.90625 0,2.139405 -0.174036,4.244186 -0.53125,6.28125 l 8.875,1.5625 C 94.759035,55.203625 95,52.580611 95,49.90625 95,26.327233 76.908046,6.9861544 53.84375,5 z m 10.875,17.125 c -0.79923,0 -1.4375,0.63827 -1.4375,1.4375 l 0,3.40625 c -2.867202,0.246186 -5.636055,1.199771 -7.40625,2.96875 -1.715351,1.722971 -2.59375,3.93098 -2.59375,6.625 0,2.067819 0.466048,3.777879 1.34375,5.09375 0.877674,1.316566 1.995704,2.318706 3.40625,3.03125 1.403093,0.709161 3.163736,1.360405 5.25,1.9375 l 0,10.96875 c -0.0025,-7.44e-4 -0.03125,0 -0.03125,0 C 62.200821,57.296537 61.415702,56.814582 60.78125,56.25 60.146789,55.686012 59.688092,55.055816 59.375,54.375 59.061259,53.693563 58.672959,52.722264 58.25,51.4375 c -0.187346,-0.594436 -0.514141,-1.04603 -1,-1.375 -0.48584,-0.329619 -1.07627,-0.5 -1.78125,-0.5 -0.877665,0 -1.631301,0.302941 -2.21875,0.90625 -0.587493,0.603344 -0.875,1.279321 -0.875,2.03125 0,1.018694 0.218044,2.036367 0.65625,3.09375 0.438206,1.058078 1.11484,2.083849 2.03125,3.0625 0.917067,0.9793 2.066357,1.810819 3.4375,2.46875 1.410647,0.662698 3.064328,1.039897 4.78125,1.1875 l 0,3.4375 c 0,0.79923 0.63827,1.4375 1.4375,1.4375 0.79923,0 1.4375,-0.63827 1.4375,-1.4375 l 0,-3.4375 c 2.092394,-0.179244 4.165056,-0.731595 5.9375,-1.71875 1.628999,-0.986902 2.880451,-2.253353 3.71875,-3.8125 0.838308,-1.558481 1.25,-3.213517 1.25,-5 0,-1.425756 -0.256683,-2.739096 -0.78125,-3.9375 -0.525216,-1.198403 -1.278959,-2.231954 -2.25,-3.09375 -0.9088,-0.830067 -1.941728,-1.468044 -3.09375,-1.90625 -1.151436,-0.438828 -2.714177,-0.935275 -4.65625,-1.46875 l -0.125,-0.03125 0,-9.78125 c 0.04452,0.0089 0.08002,0.02147 0.125,0.03125 1.973829,0.642707 3.233034,1.948263 3.75,3.90625 0.454084,1.660089 1.43309,2.5 2.96875,2.5 0.81481,0 1.521548,-0.302798 2.09375,-0.875 0.572201,-0.570948 0.875,-1.248196 0.875,-2.03125 0,-0.704935 -0.210148,-1.465943 -0.59375,-2.3125 -0.383592,-0.845932 -0.920065,-1.669823 -1.625,-2.46875 -0.892921,-1.049158 -1.957856,-1.826159 -3.15625,-2.34375 -1.285564,-0.541094 -2.823108,-0.876421 -4.4375,-1 l 0,-3.40625 c 0,-0.79923 -0.63827,-1.4375 -1.4375,-1.4375 z m -1.4375,9.375 0,9 c -1.395335,-0.514275 -2.44061,-1.088017 -3.125,-1.71875 -0.689038,-0.634452 -1.03125,-1.574721 -1.03125,-2.8125 0,-1.30002 0.357059,-2.263539 1.09375,-2.90625 0.729974,-0.636196 1.967999,-1.444257 3.0625,-1.5625 z m -20.625,3.875 c -8.378096,0 -15.617434,5.874654 -17.90625,13.5 l -3.25,0 a 0.66600769,0.66600769 0 0 0 -0.625,0.375 l -1.3125,3 a 0.66600769,0.66600769 0 0 0 0.59375,0.9375 l 3.84375,0 c -0.01353,0.287099 0,0.577607 0,0.84375 0,0.266179 -0.01351,0.525402 0,0.8125 l -2.5,0 A 0.66600769,0.66600769 0 0 0 20.875,55.25 l -1.3125,3 a 0.66600769,0.66600769 0 0 0 0.59375,0.9375 l 4.59375,0 c 2.325966,7.69979 9.569667,13.46875 17.90625,13.46875 2.332908,0 4.56907,-0.455049 6.65625,-1.28125 A 0.66600769,0.66600769 0 0 0 49.75,70.75 l 0,-3.21875 A 0.66600769,0.66600769 0 0 0 48.78125,66.9375 c -1.86852,0.898734 -3.931944,1.40625 -6.125,1.40625 -6.042933,0 -11.266525,-3.805509 -13.34375,-9.15625 l 10.8125,0 a 0.66600769,0.66600769 0 0 0 0.625,-0.40625 l 1.25,-3 a 0.66600769,0.66600769 0 0 0 -0.625,-0.9375 l -13.03125,0 c -0.01497,-0.266467 -0.03125,-0.520983 -0.03125,-0.8125 0,-0.249407 0.01484,-0.554 0.03125,-0.84375 l 14.3125,0 a 0.66600769,0.66600769 0 0 0 0.625,-0.40625 l 1.25,-3 a 0.66600769,0.66600769 0 0 0 -0.625,-0.90625 l -14.59375,0 c 2.041176,-5.281275 7.227383,-9.1875 13.34375,-9.1875 1.870161,0 3.537434,0.339483 5.0625,0.90625 a 0.66600769,0.66600769 0 0 0 0.84375,-0.375 l 1.125,-2.625 A 0.66600769,0.66600769 0 0 0 49.75,37.3125 l 0,-0.0625 A 0.66600769,0.66600769 0 0 0 49.3125,36.65625 C 47.234806,35.836541 45.002431,35.375 42.65625,35.375 z m 23.5,12.09375 0.125,0.03125 c 1.628981,0.516956 2.880442,1.13133 3.71875,1.875 0.838308,0.744337 1.25,1.793376 1.25,3.15625 0,1.269562 -0.420094,2.388596 -1.28125,3.34375 -0.861814,0.955812 -2.105523,1.592509 -3.6875,1.90625 -0.04174,0.0065 -0.08349,-0.0056 -0.125,0 l 0,-10.3125 z M 14,53.0625 5,53.84375 C 6.9845494,76.909723 26.326116,95 49.90625,95 c 6.814637,0 13.271265,-1.51218 19.0625,-4.21875 l -3.8125,-8.1875 c -4.632833,2.165339 -9.798071,3.375 -15.25,3.375 C 31.043474,85.96875 15.589482,71.513421 14,53.0625 z M 83.8125,62.25 c -2.55027,7.011601 -7.212912,13.006808 -13.21875,17.21875 l 5.1875,7.375 c 7.504989,-5.263782 13.311981,-12.739136 16.5,-21.5 L 83.8125,62.25 z" transform="translate(0,-5e-6)" style="" fill="#000000" fill-opacity="1" fill-rule="nonzero" stroke="none"/></svg>